<?xml version="1.0" encoding="UTF-8"?>
<svg width="16px" height="16px" viewBox="0 0 16 16" version="1.1" xmlns="http://www.w3.org/2000/svg" xmlns:xlink="http://www.w3.org/1999/xlink">
    <title>icon_cxd</title>
    <g id="2.0" stroke="none" stroke-width="1" fill="none" fill-rule="evenodd">
        <g id="讲话稿3" transform="translate(-1679.000000, -426.000000)" fill="#333333">
            <g id="编组-12" transform="translate(1560.000000, 249.000000)">
                <g id="编组-15" transform="translate(0.000000, 96.000000)">
                    <g id="icon_cxd" transform="translate(119.000000, 81.000000)">
                        <rect id="矩形" opacity="0" x="4.54747351e-13" y="9.09494702e-13" width="16" height="16"></rect>
                        <g id="编组-2" transform="translate(3.775648, 12.224352) rotate(-180.000000) translate(-3.775648, -12.224352) translate(0.000000, 8.448704)" fill-rule="nonzero">
                            <path d="M5.75647775,1.7948178 L1.26921447,1.7948178 C0.670868941,1.69221303 0.371805565,1.39293088 0.371805565,0.897408901 C0.371805565,0.401668148 0.670868941,0.102604772 1.26921447,0 L7.55129555,0 L7.55129555,6.28208108 C7.55129555,6.88042661 7.25223217,7.17948998 6.65388665,7.17948998 C6.05554112,7.17948998 5.75647775,6.88020783 5.75647775,6.28208108 L5.75647775,1.7948178 L5.75647775,1.7948178 Z" id="形状"></path>
                            <path d="M0.262856362,6.01933411 L2.80128529,3.48090518 C3.15176044,3.13043003 3.720134,3.13043003 4.07060915,3.48090518 C4.4210843,3.83138032 4.4210843,4.39975388 4.07060915,4.75022903 L1.53196144,7.28843919 C1.18148629,7.63891434 0.61333151,7.63891434 0.262856362,7.28843919 C-0.0876187872,6.93796404 -0.0876187872,6.36980926 0.262856362,6.01933411 Z" id="形状" opacity="0.3"></path>
                        </g>
                        <g id="编组-17" transform="translate(12.224352, 3.775538) rotate(-180.000000) translate(-12.224352, -3.775538) translate(8.448704, 0.000000)" fill-rule="nonzero">
                            <path d="M1.79503658,5.75625897 L6.28229986,5.75625897 C6.88064538,5.85886375 7.17970876,6.15814589 7.17970876,6.65366787 C7.17970876,7.14918985 6.88042661,7.448472 6.28229986,7.55107678 L0,7.55107678 L0,1.26921447 C0,0.670868941 0.299063376,0.371805565 0.897408901,0.371805565 C1.49575443,0.371805565 1.7948178,0.670868941 1.7948178,1.26921447 L1.79503658,5.75625897 L1.79503658,5.75625897 Z" id="路径"></path>
                            <path d="M3.48090518,2.80128529 L6.01933411,0.262856362 C6.36980926,-0.0876187872 6.93796404,-0.0876187872 7.28843919,0.262856362 C7.63891434,0.61333151 7.63891434,1.18148629 7.28843919,1.53196144 L4.75022903,4.07039037 C4.39975388,4.42086552 3.8315991,4.42086552 3.48112395,4.07039037 C3.1306488,3.71991523 3.1306488,3.15176044 3.48090518,2.80128529 Z" id="路径" opacity="0.3"></path>
                        </g>
                    </g>
                </g>
            </g>
        </g>
    </g>
</svg>