<?xml version="1.0" encoding="UTF-8"?>
<svg width="16px" height="16px" viewBox="0 0 16 16" version="1.1" xmlns="http://www.w3.org/2000/svg" xmlns:xlink="http://www.w3.org/1999/xlink">
    <title>icon_rs</title>
    <g id="2.0" stroke="none" stroke-width="1" fill="none" fill-rule="evenodd">
        <g id="讲话稿3" transform="translate(-1576.000000, -397.000000)" fill-rule="nonzero" stroke="#333333" stroke-width="1.5">
            <g id="编组-12" transform="translate(1560.000000, 249.000000)">
                <g id="编组-15" transform="translate(0.000000, 96.000000)">
                    <g id="编组-14" transform="translate(16.000000, 16.000000)">
                        <g id="icon_rs" transform="translate(0.000000, 36.000000)">
                            <path d="M6.40742934,9.59257066 L6.40742934,12.4212853 C6.40742934,13.2024133 6.09081466,13.909592 5.57891799,14.4214887 C5.06702132,14.9333853 4.35984266,15.25 3.57871467,15.25 C2.79758668,15.25 2.09040802,14.9333853 1.57851134,14.4214887 C1.06661467,13.909592 0.75,13.2024133 0.75,12.4212853 C0.75,11.6401573 1.06661467,10.9329787 1.57851134,10.421082 C2.09040802,9.90918534 2.79758668,9.59257066 3.57871467,9.59257066 L3.57871467,9.59257066 L6.40742934,9.59257066 Z M12.4212853,9.59257066 C13.2024133,9.59257066 13.909592,9.90918534 14.4214887,10.421082 C14.9333853,10.9329787 15.25,11.6401573 15.25,12.4212853 C15.25,13.2024133 14.9333853,13.909592 14.4214887,14.4214887 C13.909592,14.9333853 13.2024133,15.25 12.4212853,15.25 C11.6401573,15.25 10.9329787,14.9333853 10.421082,14.4214887 C9.90918534,13.909592 9.59257066,13.2024133 9.59257066,12.4212853 L9.59257066,12.4212853 L9.59257066,9.59257066 Z M3.57871467,0.75 C4.35984266,0.75 5.06702132,1.06661467 5.57891799,1.57851134 C6.09081466,2.09040802 6.40742934,2.79758668 6.40742934,3.57871467 L6.40742934,3.57871467 L6.40742934,6.40742934 L3.57871467,6.40742934 C2.79758668,6.40742934 2.09040802,6.09081466 1.57851134,5.57891799 C1.06661467,5.06702132 0.75,4.35984266 0.75,3.57871467 C0.75,2.79758668 1.06661467,2.09040802 1.57851134,1.57851134 C2.09040802,1.06661467 2.79758668,0.75 3.57871467,0.75 Z M12.4212853,0.75 C13.2024133,0.75 13.909592,1.06661467 14.4214887,1.57851134 C14.9333853,2.09040802 15.25,2.79758668 15.25,3.57871467 C15.25,4.35984266 14.9333853,5.06702132 14.4214887,5.57891799 C13.909592,6.09081466 13.2024133,6.40742934 12.4212853,6.40742934 L12.4212853,6.40742934 L9.59257066,6.40742934 L9.59257066,3.57871467 C9.59257066,2.79758668 9.90918534,2.09040802 10.421082,1.57851134 C10.9329787,1.06661467 11.6401573,0.75 12.4212853,0.75 Z" id="形状"></path>
                        </g>
                    </g>
                </g>
            </g>
        </g>
    </g>
</svg>