<?xml version="1.0" encoding="UTF-8"?>
<svg width="16px" height="16px" viewBox="0 0 16 16" version="1.1" xmlns="http://www.w3.org/2000/svg" xmlns:xlink="http://www.w3.org/1999/xlink">
    <title>icon_zjd</title>
    <g id="2.0" stroke="none" stroke-width="1" fill="none" fill-rule="evenodd">
        <g id="讲话稿3" transform="translate(-1576.000000, -455.000000)" fill="#333333" fill-rule="nonzero">
            <g id="编组-12" transform="translate(1560.000000, 249.000000)">
                <g id="编组-15" transform="translate(0.000000, 96.000000)">
                    <g id="编组-14" transform="translate(16.000000, 16.000000)">
                        <g id="icon_zjd" transform="translate(0.000000, 94.000000)">
                            <path d="M13.9350697,0 L1.97312289,0 C0.159016864,0 0,2.08706046 0,2.08706046 L0,14.1540174 C0,15.3839225 1.97312289,16 1.97312289,16 L10.8465869,16 L16,10.9419737 L16,1.92634187 C16,0.374999634 13.935054,0 13.935054,0 L13.935054,0 L13.9350697,0 Z M14.7502996,10.4397398 C14.7502996,11.0714423 14.0828928,11.104911 14.0828928,11.104911 L11.8074294,11.104911 C11.0638613,11.104911 11.0705713,11.6674105 11.0705713,11.6674105 L11.0705713,13.9151739 C11.0705713,14.7098138 10.6674401,14.7432825 10.6674401,14.7432825 L2.26430106,14.7432825 C1.3505224,14.7432825 1.25198933,13.966502 1.25198933,13.966502 L1.25198933,2.38168517 C1.25198933,1.36382679 2.26430106,1.17854572 2.26430106,1.17854572 C2.26430106,1.17854572 12.6539986,1.22988942 13.610326,1.22988942 C14.5644115,1.22988942 14.7525415,2.36827894 14.7525415,2.36827894 L14.7525415,10.4396929 L14.7502996,10.4396929 L14.7502996,10.4397398 Z M12.3494162,5.53126022 C12.3494162,5.87500989 12.071705,6.15179087 11.7268,6.15179087 L4.20832652,6.15179087 C3.86342156,6.15179087 3.58571035,5.87500989 3.58571035,5.53126022 L3.58571035,5.53126022 C3.58571035,5.18751056 3.86342156,4.91072958 4.20832652,4.91072958 L11.7290419,4.91072958 C12.071705,4.91072958 12.3494162,5.18751056 12.3494162,5.53126022 L12.3494162,5.53126022 L12.3494162,5.53126022 Z M11.0212969,8.68527277 C11.0212969,9.01563182 10.7502957,9.28572531 10.4166001,9.28572531 L4.1881339,9.28572531 C3.85666455,9.28572531 3.58566332,9.01563182 3.58566332,8.68527277 L3.58566332,8.68527277 C3.58566332,8.35044497 3.85666455,8.08260148 4.1881339,8.08260148 L10.4166001,8.08260148 C10.7503113,8.08036711 11.0212969,8.35044497 11.0212969,8.68527277 L11.0212969,8.68527277 L11.0212969,8.68527277 Z" id="形状"></path>
                        </g>
                    </g>
                </g>
            </g>
        </g>
    </g>
</svg>