<?xml version="1.0" encoding="UTF-8"?>
<svg width="16px" height="16px" viewBox="0 0 16 16" version="1.1" xmlns="http://www.w3.org/2000/svg" xmlns:xlink="http://www.w3.org/1999/xlink">
    <title>icon_fuz</title>
    <g id="2.0" stroke="none" stroke-width="1" fill="none" fill-rule="evenodd">
        <g id="讲话稿3" transform="translate(-1572.000000, -257.000000)">
            <g id="编组-12" transform="translate(1560.000000, 249.000000)">
                <g id="icon_fuz" transform="translate(12.000000, 8.000000)">
                    <rect id="矩形" fill-opacity="0" fill="#D8D8D8" x="0" y="0" width="16" height="16"></rect>
                    <g id="编组" transform="translate(1.000000, 1.950000)" fill="#FFFFFF" fill-rule="nonzero" stroke="#FFFFFF" stroke-width="0.2">
                        <path d="M9.75,1.9 C10.4395,1.9 11,2.43295 11,3.0875 L11,3.0875 L11,12.1125 C11,12.767525 10.4395,13.3 9.75,13.3 L9.75,13.3 L1.25,13.3 C0.561,13.3 0,12.767525 0,12.1125 L0,12.1125 L0,3.0875 C0.000826529084,2.43198738 0.559986712,1.9007852 1.25,1.9 L1.25,1.9 Z M9.75,2.85 L1.25,2.85 C1.11192881,2.85 1,2.95633237 1,3.0875 L1,3.0875 L1,12.1125 C1,12.2436676 1.11192881,12.35 1.25,12.35 L1.25,12.35 L9.75,12.35 C9.8875,12.35 10,12.243125 10,12.1125 L10,12.1125 L10,3.0875 C10,2.95633237 9.88807119,2.85 9.75,2.85 L9.75,2.85 Z M11.75,0 C12.4395,0 13,0.53295 13,1.1875 L13,1.1875 L13,10.2125 C13,10.4748353 12.7761424,10.6875 12.5,10.6875 C12.2238576,10.6875 12,10.4748353 12,10.2125 L12,10.2125 L12,1.1875 C12,1.05633237 11.8880712,0.95 11.75,0.95 L11.75,0.95 L3.25,0.95 C2.97385763,0.95 2.75,0.737335256 2.75,0.475 C2.75,0.212664744 2.97385763,0 3.25,0 L3.25,0 Z M6,9.1238 C6.27614237,9.1238 6.5,9.33646474 6.5,9.5988 C6.5,9.86113526 6.27614237,10.0738 6,10.0738 L6,10.0738 L3,10.0738 C2.72385763,10.0738 2.5,9.86113526 2.5,9.5988 C2.5,9.33646474 2.72385763,9.1238 3,9.1238 L3,9.1238 Z M8,6.76875 C8.27614237,6.76875 8.5,6.98141474 8.5,7.24375 C8.5,7.50608526 8.27614237,7.71875 8,7.71875 L8,7.71875 L3,7.71875 C2.72385763,7.71875 2.5,7.50608526 2.5,7.24375 C2.5,6.98141474 2.72385763,6.76875 3,6.76875 L3,6.76875 Z M8,4.39375 C8.27614237,4.39375 8.5,4.60641474 8.5,4.86875 C8.5,5.13108526 8.27614237,5.34375 8,5.34375 L8,5.34375 L3,5.34375 C2.72385763,5.34375 2.5,5.13108526 2.5,4.86875 C2.5,4.60641474 2.72385763,4.39375 3,4.39375 L3,4.39375 Z" id="形状结合"></path>
                    </g>
                </g>
            </g>
        </g>
    </g>
</svg>