<?xml version="1.0" encoding="UTF-8"?>
<svg width="16px" height="16px" viewBox="0 0 16 16" version="1.1" xmlns="http://www.w3.org/2000/svg" xmlns:xlink="http://www.w3.org/1999/xlink">
    <title>icon_ai</title>
    <g id="2.0" stroke="none" stroke-width="1" fill="none" fill-rule="evenodd">
        <g id="讲话稿3" transform="translate(-1572.000000, -301.000000)">
            <g id="编组-12" transform="translate(1560.000000, 249.000000)">
                <g id="编组备份-2" transform="translate(0.000000, 44.000000)">
                    <g id="icon_ai" transform="translate(12.000000, 8.000000)">
                        <rect id="矩形" fill-opacity="0" fill="#D8D8D8" x="0" y="0" width="16" height="16"></rect>
                        <g id="编组" transform="translate(0.500001, 0.942826)" fill="#FFFFFF" fill-rule="nonzero" stroke="#FFFFFF" stroke-width="0.2">
                            <path d="M3.37986975,0.0895344563 L3.44805155,0.147498898 L5.10097346,1.84445767 C5.85341235,1.48966157 6.67190775,1.3065612 7.49999916,1.30778697 C8.35616789,1.30778697 9.16850548,1.49966924 9.89902486,1.84445767 L11.5529208,0.147498898 L11.6201286,0.0895344563 C11.8136846,-0.0486548841 12.0759247,-0.024715626 12.2426631,0.146364103 C12.4094014,0.317443832 12.4327332,0.586511968 12.2980506,0.785107672 L12.2415571,0.855064744 L10.7756481,2.35914188 C12.3244629,3.46011489 13.248018,5.27090473 13.2467518,7.20416906 C13.2467518,8.03565888 13.0782453,8.8431634 12.7587648,9.58570779 C13.7147898,9.99976792 14.2683092,11.0335129 14.0962067,12.0834951 C13.9241042,13.1334773 13.0714738,13.9245819 12.0360376,13.9950023 L11.8831156,14 L3.11688276,14 C2.05115577,14.0006164 1.13252848,13.2308221 0.92025012,12.1592578 C0.707971759,11.0876935 1.26081165,10.0110222 2.24220754,9.5847084 C1.91880466,8.83499721 1.75223268,8.02403035 1.75324656,7.20416906 C1.75198035,5.27090473 2.67553541,3.46011489 4.22435018,2.35914188 L2.75844125,0.854065355 C2.57958744,0.67137303 2.5663868,0.37875948 2.72802754,0.179896156 C2.88966828,-0.0189671676 3.17259111,-0.0581873779 3.37986975,0.0895344563 Z M11.8831156,10.4022068 L3.11688276,10.4022068 C2.4434163,10.4031183 1.88847996,10.9447623 1.85398188,11.6348574 C1.8194838,12.3249524 2.31749606,12.9220104 2.98733733,12.9936168 L3.11688276,13.0006125 L11.8831156,13.0006125 C12.5824371,13.0006125 13.1493492,12.4189396 13.1493492,11.7014096 C13.1493492,10.9838797 12.5824371,10.4022068 11.8831156,10.4022068 Z M7.49999916,2.30715949 C5.84391635,2.30660355 4.30591657,3.18692235 3.43641768,4.63308251 C2.56691878,6.07924267 2.49021835,7.88451106 3.23376587,9.40282001 L11.7642844,9.40282001 L11.7740247,9.3878292 C12.5112446,7.86950857 12.4301369,6.06786787 11.5596413,4.62574272 C10.6891457,3.18361757 9.15326082,2.30643312 7.49999916,2.30715949 Z M0.966233646,5.31532801 L0.974025851,5.40527282 L0.974025851,8.55334123 C0.974490247,8.8121715 0.782248308,9.02852402 0.531017661,9.05191059 C0.279787014,9.07529717 0.0527350582,8.89797589 0.00779220503,8.64328604 L-4.49307258e-13,8.55334123 L-4.49307258e-13,5.40527282 C-4.49307258e-13,5.12929978 0.218043114,4.90557854 0.487013345,4.90557854 C0.722232679,4.90549897 0.9238941,5.07792574 0.966233646,5.31532801 Z M14.5129858,4.90557857 C14.7482052,4.90549897 14.9498666,5.07792574 14.9922061,5.31532801 L14.9999983,5.40527282 L14.9999983,8.55334123 C15.0004627,8.8121715 14.8082208,9.02852402 14.5569901,9.05191059 C14.3057595,9.07529717 14.0787075,8.89797589 14.0337647,8.64328604 L14.0259725,8.55334123 L14.0259725,5.40527282 C14.0259725,5.12929978 14.2440156,4.90557857 14.5129858,4.90557857 Z M5.7467526,5.40527282 C6.23089827,5.40527282 6.62337588,5.80796946 6.62337588,6.30472094 C6.62337588,6.80147242 6.23089827,7.20416906 5.7467526,7.20416906 C5.26260693,7.20416906 4.87012932,6.80147242 4.87012932,6.30472094 C4.87012932,5.80796946 5.26260693,5.40527282 5.7467526,5.40527282 Z M9.25324572,5.40527282 C9.73739139,5.40527282 10.129869,5.80796946 10.129869,6.30472094 C10.129869,6.80147242 9.73739139,7.20416906 9.25324572,7.20416906 C8.76910005,7.20416906 8.37662244,6.80147242 8.37662244,6.30472094 C8.37662244,5.80796946 8.76910005,5.40527282 9.25324572,5.40527282 Z" id="形状"></path>
                        </g>
                    </g>
                </g>
            </g>
        </g>
    </g>
</svg>