<?xml version="1.0" encoding="UTF-8"?>
<svg width="16px" height="16px" viewBox="0 0 16 16" version="1.1" xmlns="http://www.w3.org/2000/svg" xmlns:xlink="http://www.w3.org/1999/xlink">
    <title>icon_fy</title>
    <g id="2.0" stroke="none" stroke-width="1" fill="none" fill-rule="evenodd">
        <g id="讲话稿3" transform="translate(-1576.000000, -484.000000)" fill="#333333" fill-rule="nonzero">
            <g id="编组-12" transform="translate(1560.000000, 249.000000)">
                <g id="编组-15" transform="translate(0.000000, 96.000000)">
                    <g id="编组-14" transform="translate(16.000000, 16.000000)">
                        <g id="形状" transform="translate(0.000000, 123.000000)">
                            <path d="M2.59375,6.30516502 C2.9389375,6.30516502 3.21875,6.02514066 3.21875,5.6796918 L3.21875,4.7102083 L5.40625,4.7102083 L5.40625,5.6796918 C5.43925,6.50956967 6.62353125,6.5089442 6.65625,5.6796918 L6.65625,2.33341004 C6.527125,-0.779007268 2.09671875,-0.776599196 1.96875,2.33341004 L1.96875,5.6796918 C1.96875,6.02514066 2.2485625,6.30516502 2.59375,6.30516502 Z M3.21875,2.33341004 C3.279,0.880936123 5.34653125,0.882061975 5.40625,2.33341004 L5.40625,3.45926185 L3.21875,3.45926185 L3.21875,2.33341004 Z M6.8776875,11.5650821 C7.537625,12.233025 7.5389375,13.3190028 6.88159375,13.9886032 L5.92028125,14.993895 C5.68134375,15.2437091 5.2856875,15.251934 5.036625,15.0133473 C4.78725,14.7745103 4.7785625,14.3785858 5.0171875,14.1289907 L5.68025,13.4355911 L3.3203125,13.4355911 C1.4895,13.4355598 0,11.9449633 0,10.1127333 L0,7.58738513 C0.033,6.75750726 1.21728125,6.75813273 1.25,7.58738513 L1.25,10.1127333 C1.25,11.2551601 2.17875,12.1846133 3.3203125,12.1846133 L5.72384375,12.1846133 L4.999875,11.4740445 C4.7534375,11.232174 4.74959375,10.8361556 4.9913125,10.5895315 C5.23303125,10.3429074 5.62875,10.339092 5.87515625,10.5809625 L6.8709375,11.5582957 L6.8776875,11.5650821 L6.8776875,11.5650821 Z M16,5.9376995 L16,8.46304764 C15.967,9.29292552 14.7827187,9.29230005 14.75,8.46304764 L14.75,5.9376995 C14.75,4.79527266 13.82125,3.86581944 12.6796875,3.86581944 L10.2761562,3.86581944 L11.000125,4.5763883 C11.2465625,4.8182588 11.2504062,5.21427717 11.0086875,5.46090126 C10.7668437,5.70761918 10.3711562,5.71124692 10.1248437,5.46947025 L9.1290625,4.49213706 L9.12225,4.48535067 C8.4623125,3.81740782 8.461,2.73142993 9.11834375,2.06182957 L10.0796562,1.05653773 C10.3182812,0.806973914 10.7139062,0.798279836 10.9633125,1.03708551 C11.2126875,1.27592246 11.221375,1.67184702 10.98275,1.92144211 L10.3196875,2.61484172 L12.679625,2.61484172 C14.5105,2.614873 16,4.10550078 16,5.9376995 Z M15.0625,10.9336669 C15.0625,11.2791157 14.7826875,11.5591401 14.4375,11.5591401 L14.0939062,11.5591401 C14.0175937,12.2226734 13.4824375,13.5926474 12.7772187,14.3851845 C13.1849375,14.6064457 13.6719375,14.7490536 14.25,14.7490536 C14.5951875,14.7490536 14.875,15.0290779 14.875,15.3745268 C14.875,15.7199756 14.5951875,16 14.25,16 C13.3513437,16 12.532,15.7525315 11.8142188,15.2644122 C11.102125,15.7494354 10.2793125,16 9.375,16 C9.0298125,16 8.75,15.7199756 8.75,15.3745268 C8.75,15.0290779 9.0298125,14.7490536 9.375,14.7490536 C9.91478125,14.7490536 10.407625,14.6282747 10.850625,14.3883744 C10.6568125,14.1584505 10.4774375,13.9058531 10.3134688,13.6315831 C10.13625,13.3351401 10.2327188,12.9510682 10.5289375,12.7737153 C10.825125,12.5963311 11.2089375,12.6929041 11.3861562,12.9893159 C11.5033437,13.1853079 11.64475,13.3904944 11.8133437,13.5887069 C11.9087701,13.4752802 11.9984254,13.357114 12.0819687,13.2346578 C12.5089687,12.6105293 12.7305625,11.9601935 12.822375,11.5591401 L9.1875,11.5591401 C8.35825,11.5261151 8.358875,10.3409372 9.1875,10.3081937 L11.21875,10.3081937 L11.21875,9.68272043 C11.25175,8.85284256 12.4360312,8.85346803 12.46875,9.68272043 L12.46875,10.3081937 L14.4375,10.3081937 C14.7826875,10.3081937 15.0625,10.588218 15.0625,10.9336669 L15.0625,10.9336669 Z"></path>
                        </g>
                    </g>
                </g>
            </g>
        </g>
    </g>
</svg>